<svg xmlns="http://www.w3.org/2000/svg" viewBox="0 0 24 24" width="24" height="24">
  <path d="M12 24c-6.617 0-12-5.383-12-12s5.383-12 12-12c.552 0 1 .448 1 1s-.448 1-1 1c-5.514 0-10 4.486-10 10s4.486 10 10 10 10-4.486 10-10c0-.552.447-1 1-1s1 .448 1 1c0 6.617-5.383 12-12 12zM12 2c-.26 0-.52-.11-.71-.29-.18-.19-.29-.45-.29-.71 0-.26.11-.52.29-.71.38-.37 1.05-.37 1.42 0 .18.19.29.45.29.71 0 .26-.11.52-.29.71-.19.18-.45.29-.71.29zM21.24 8.17c-.21-.51.029-1.1.54-1.31.51-.21 1.1.03 1.31.54.21.51-.03 1.1-.54 1.31-.13.05-.26.08-.38.08-.4 0-.771-.23-.93-.62zm-2.171-3.24c-.39-.39-.39-1.03 0-1.42.391-.39 1.021-.39 1.41 0 .391.39.391 1.03 0 1.42-.189.19-.449.29-.699.29-.26 0-.51-.1-.711-.29zm-3.239-2.17c-.511-.21-.75-.8-.54-1.31.21-.51.79-.75 1.31-.54.51.21.75.8.53 1.31-.15.38-.53.61-.92.61-.13 0-.26-.02-.38-.07zM23 13c-.26 0-.521-.11-.71-.29-.181-.19-.29-.45-.29-.71 0-.26.109-.52.29-.71.38-.37 1.05-.37 1.42 0 .18.19.29.45.29.71 0 .26-.11.52-.29.71-.19.18-.45.29-.71.29zM15.999 15c-.15 0-.303-.034-.446-.105l-4-2c-.339-.17-.553-.516-.553-.895v-7c0-.552.448-1 1-1s1 .448 1 1v6.382l3.447 1.724c.494.247.694.848.447 1.342-.175.35-.528.552-.895.552z"/>
</svg>
